<svg width="11" height="16" xmlns="http://www.w3.org/2000/svg">

 <g>
  <title>background</title>
  <rect fill="#458ff6" id="canvas_background" height="18" width="13" y="-1" x="-1"/>
 </g>
 <g>
  <title>Layer 1</title>
  <path id="svg_1" fill="#ffffff" d="m4.81951,1.05554l0,11.57526l-2.54305,-2.5431c-0.35077,-0.35072 -0.87692,-0.35072 -1.22768,0c-0.35077,0.3508 -0.35077,0.877 0,1.2277l4.0338,4.0338c0.35077,0.3508 0.87691,0.3508 1.22768,0l4.03384,-4.0338c0.3507,-0.3507 0.3507,-0.8769 0,-1.2277c-0.3508,-0.35072 -0.87695,-0.35072 -1.22772,0l-2.54305,2.5431l0,-11.57526c0,-0.43846 -0.35076,-0.87691 -0.87691,-0.87691c-0.52615,0 -0.87691,0.43845 -0.87691,0.87691z"/>
  <polyline stroke="null" stroke-linecap="round" id="svg_2" points="3.771221876144409,4.506211280822754 3.771221876144409,4.506211280822754 " stroke-opacity="null" stroke-width="null" fill="none"/>
 </g>
</svg>