<svg width="160" height="41" xmlns="http://www.w3.org/2000/svg">

 <g>
  <title>background</title>
  <rect fill="none" id="canvas_background" height="402" width="582" y="-1" x="-1"/>
 </g>
 <g>
  <title>Layer 1</title>
  <path id="svg_1" fill="#ffffff" d="m58.856,15.456l-5.568,0l0,-2.544l14.28,0l0,2.544l-5.592,0l0,14.544l-3.12,0l0,-14.544zm15.2649,2.136c0.464,0 0.864,0.064 1.2,0.192l-0.024,2.736c-0.512,-0.208 -1.04,-0.312 -1.584,-0.312c-1.024,0 -1.808,0.296 -2.352,0.888c-0.528,0.592 -0.792,1.376 -0.792,2.352l0,6.552l-2.976,0l0,-8.688c0,-1.28 -0.064,-2.424 -0.192,-3.432l2.808,0l0.24,2.136c0.304,-0.784 0.784,-1.384 1.44,-1.8c0.656,-0.416 1.4,-0.624 2.232,-0.624zm14.2281,0.288l0,12.12l-2.952,0l0,-1.944c-0.368,0.672 -0.896,1.2 -1.584,1.584c-0.688,0.368 -1.472,0.552 -2.352,0.552c-1.056,0 -1.992,-0.256 -2.808,-0.768c-0.816,-0.512 -1.448,-1.24 -1.896,-2.184c-0.448,-0.944 -0.672,-2.04 -0.672,-3.288c0,-1.248 0.224,-2.352 0.672,-3.312c0.464,-0.976 1.104,-1.728 1.92,-2.256c0.816,-0.544 1.744,-0.816 2.784,-0.816c0.88,0 1.664,0.192 2.352,0.576c0.688,0.368 1.216,0.888 1.584,1.56l0,-1.824l2.952,0zm-6.072,9.96c0.992,0 1.76,-0.344 2.304,-1.032c0.544,-0.688 0.816,-1.656 0.816,-2.904c0,-1.28 -0.272,-2.264 -0.816,-2.952c-0.544,-0.688 -1.32,-1.032 -2.328,-1.032c-0.992,0 -1.768,0.36 -2.328,1.08c-0.544,0.704 -0.816,1.688 -0.816,2.952c0,1.248 0.272,2.208 0.816,2.88c0.56,0.672 1.344,1.008 2.352,1.008zm15.0754,-13.128c-1.296,0 -1.944,0.712 -1.944,2.136l0,1.032l2.712,0l0,2.256l-2.712,0l0,9.864l-3,0l0,-9.864l-2.304,0l0,-2.256l2.304,0l0,-1.176c0,-1.44 0.36,-2.544 1.08,-3.312c0.736,-0.784 1.784,-1.176 3.144,-1.176c0.752,0 1.384,0.096 1.896,0.288l0,2.376c-0.448,-0.112 -0.84,-0.168 -1.176,-0.168zm14.5516,3.168l0,12.12l-2.952,0l0,-1.944c-0.368,0.672 -0.896,1.2 -1.584,1.584c-0.688,0.368 -1.472,0.552 -2.352,0.552c-1.056,0 -1.992,-0.256 -2.808,-0.768c-0.816,-0.512 -1.448,-1.24 -1.896,-2.184c-0.4483,-0.944 -0.6723,-2.04 -0.6723,-3.288c0,-1.248 0.224,-2.352 0.6723,-3.312c0.464,-0.976 1.104,-1.728 1.92,-2.256c0.816,-0.544 1.744,-0.816 2.784,-0.816c0.88,0 1.664,0.192 2.352,0.576c0.688,0.368 1.216,0.888 1.584,1.56l0,-1.824l2.952,0zm-6.072,9.96c0.992,0 1.76,-0.344 2.304,-1.032c0.544,-0.688 0.816,-1.656 0.816,-2.904c0,-1.28 -0.272,-2.264 -0.816,-2.952c-0.544,-0.688 -1.32,-1.032 -2.328,-1.032c-0.992,0 -1.768,0.36 -2.328,1.08c-0.544,0.704 -0.816,1.688 -0.816,2.952c0,1.248 0.272,2.208 0.816,2.88c0.56,0.672 1.344,1.008 2.352,1.008zm9.339,-15.504l2.976,0l0,17.664l-2.976,0l0,-17.664zm17.97,5.544l0,11.736c0,1.888 -0.52,3.32 -1.56,4.296c-1.04,0.976 -2.568,1.464 -4.584,1.464c-1.872,0 -3.52,-0.392 -4.944,-1.176l0.48,-2.28c1.472,0.768 2.936,1.152 4.392,1.152c2.16,0 3.24,-1.072 3.24,-3.216l0,-2.4c-0.368,0.656 -0.904,1.192 -1.608,1.608c-0.704,0.4 -1.496,0.6 -2.376,0.6c-1.056,0 -2,-0.248 -2.832,-0.744c-0.816,-0.512 -1.456,-1.224 -1.92,-2.136c-0.448,-0.928 -0.672,-1.984 -0.672,-3.168c0,-1.184 0.224,-2.232 0.672,-3.144c0.464,-0.928 1.104,-1.64 1.92,-2.136c0.832,-0.512 1.776,-0.768 2.832,-0.768c0.896,0 1.688,0.192 2.376,0.576c0.704,0.368 1.24,0.888 1.608,1.56l0,-1.824l2.976,0zm-6.168,9.432c0.992,0 1.768,-0.328 2.328,-0.984c0.576,-0.656 0.864,-1.56 0.864,-2.712c0,-1.152 -0.28,-2.056 -0.84,-2.712c-0.56,-0.656 -1.344,-0.984 -2.352,-0.984c-0.992,0 -1.776,0.328 -2.352,0.984c-0.56,0.656 -0.84,1.56 -0.84,2.712c0,1.152 0.28,2.056 0.84,2.712c0.576,0.656 1.36,0.984 2.352,0.984zm21.001,-9.432l0,12.12l-2.952,0l0,-1.944c-0.368,0.672 -0.896,1.2 -1.584,1.584c-0.688,0.368 -1.472,0.552 -2.352,0.552c-1.056,0 -1.992,-0.256 -2.808,-0.768c-0.816,-0.512 -1.448,-1.24 -1.896,-2.184c-0.448,-0.944 -0.672,-2.04 -0.672,-3.288c0,-1.248 0.224,-2.352 0.672,-3.312c0.464,-0.976 1.104,-1.728 1.92,-2.256c0.816,-0.544 1.744,-0.816 2.784,-0.816c0.88,0 1.664,0.192 2.352,0.576c0.688,0.368 1.216,0.888 1.584,1.56l0,-1.824l2.952,0zm-6.072,9.96c0.992,0 1.76,-0.344 2.304,-1.032c0.544,-0.688 0.816,-1.656 0.816,-2.904c0,-1.28 -0.272,-2.264 -0.816,-2.952c-0.544,-0.688 -1.32,-1.032 -2.328,-1.032c-0.992,0 -1.768,0.36 -2.328,1.08c-0.544,0.704 -0.816,1.688 -0.816,2.952c0,1.248 0.272,2.208 0.816,2.88c0.56,0.672 1.344,1.008 2.352,1.008zm15.867,-10.248c0.464,0 0.864,0.064 1.2,0.192l-0.024,2.736c-0.512,-0.208 -1.04,-0.312 -1.584,-0.312c-1.024,0 -1.808,0.296 -2.352,0.888c-0.528,0.592 -0.792,1.376 -0.792,2.352l0,6.552l-2.976,0l0,-8.688c0,-1.28 -0.064,-2.424 -0.192,-3.432l2.808,0l0.24,2.136c0.304,-0.784 0.784,-1.384 1.44,-1.8c0.656,-0.416 1.4,-0.624 2.232,-0.624z"/>
  <circle id="svg_2" fill="#ffffff" r="20.5" cy="20.321747" cx="21.034758"/>
  <path id="svg_3" fill="#458ff6" d="m19.344,15.244l-6.032,0l0,-2.756l15.47,0l0,2.756l-6.058,0l0,15.756l-3.38,0l0,-15.756z"/>
 </g>
</svg>